<?xml version="1.0" encoding="iso-8859-1"?>
<!-- Generator: Adobe Illustrator 19.0.0, SVG Export Plug-In . SVG Version: 6.00 Build 0)  -->
<svg version="1.1" id="Capa_1" xmlns="http://www.w3.org/2000/svg" xmlns:xlink="http://www.w3.org/1999/xlink" x="0px" y="0px"
     viewBox="0 0 512 512" style="enable-background:new 0 0 512 512;" xml:space="preserve">
<g>
	<g>
		<path d="M103.886,256.693c-22.929,0-41.582,18.658-41.582,41.592c0,22.929,18.654,41.582,41.582,41.582
			c22.929,0,41.582-18.654,41.582-41.582C145.468,275.351,126.814,256.693,103.886,256.693z M103.886,319.789
			c-11.857,0-21.504-9.647-21.504-21.504c0-11.862,9.647-21.514,21.504-21.514s21.504,9.652,21.504,21.514
			C125.39,310.142,115.743,319.789,103.886,319.789z"/>
	</g>
</g>
<g>
	<g>
		<path d="M408.114,256.693c-22.929,0-41.582,18.658-41.582,41.592c0,22.929,18.654,41.582,41.582,41.582
			c22.929,0,41.582-18.654,41.582-41.582C449.697,275.351,431.043,256.693,408.114,256.693z M408.114,319.789
			c-11.857,0-21.504-9.647-21.504-21.504c0-11.862,9.647-21.514,21.504-21.514c11.857,0,21.504,9.652,21.504,21.514
			C429.618,310.142,419.972,319.789,408.114,319.789z"/>
	</g>
</g>
<g>
	<g>
		<path d="M339.245,270.065h-166.49c-5.545,0-10.039,4.495-10.039,10.039s4.495,10.039,10.039,10.039h166.49
			c5.545,0,10.039-4.495,10.039-10.039S344.79,270.065,339.245,270.065z"/>
	</g>
</g>
<g>
	<g>
		<path d="M316.848,306.417H195.152c-5.545,0-10.039,4.495-10.039,10.039s4.495,10.039,10.039,10.039h121.695
			c5.545,0,10.039-4.495,10.039-10.039S322.392,306.417,316.848,306.417z"/>
	</g>
</g>
<g>
	<g>
		<path d="M490.585,208.507c3.896-1.803,7.484-4.294,10.604-7.42c6.971-6.971,10.81-16.234,10.81-26.083
			c0-20.343-16.555-36.894-36.904-36.894h-40.233l-24.035-63.545c-6.965-18.419-24.871-30.793-44.557-30.793H145.729
			c-19.686,0-37.592,12.374-44.557,30.792l-24.035,63.546H36.904c-9.861,0-19.127,3.836-26.093,10.801
			C3.839,155.883,0,165.149,0,175.004c0,14.823,8.794,27.625,21.437,33.485C8.284,220.349,0,237.51,0,256.572v83.426
			c0,34.878,27.73,63.387,62.303,64.681v40.169c0,12.892,10.489,23.381,23.381,23.381h36.402c12.892,0,23.381-10.489,23.381-23.381
			v-40.107h221.063v40.107c0,12.892,10.489,23.381,23.381,23.381h36.402c12.892,0,23.381-10.489,23.381-23.381v-40.169
			C484.27,403.385,512,374.876,512,339.998v-83.426C512,237.52,503.726,220.366,490.585,208.507z M475.095,158.188
			c9.277,0,16.826,7.543,16.826,16.816c0.001,4.486-1.75,8.706-4.936,11.892c-3.168,3.174-7.39,4.923-11.888,4.923h-19.919
			l-12.721-33.631H475.095z M119.952,81.667c4.031-10.658,14.39-17.818,25.778-17.818h220.542c11.387,0,21.747,7.16,25.778,17.818
			l41.663,110.152h-48.569c-3.039-16.588-13.455-30.624-27.72-38.566c4.629-5.853,7.402-13.236,7.402-21.258
			c0-18.943-15.411-34.354-34.354-34.354c-18.937,0-34.344,15.411-34.344,34.354c0,8.021,2.772,15.403,7.398,21.255
			c-14.268,7.941-24.685,21.978-27.725,38.569h-39.598c-3.039-16.588-13.455-30.624-27.72-38.566
			c4.629-5.853,7.402-13.236,7.402-21.258c0-18.943-15.411-34.354-34.354-34.354c-18.937,0-34.344,15.411-34.344,34.354
			c0,8.021,2.772,15.403,7.398,21.255c-14.268,7.941-24.685,21.979-27.725,38.569H78.289L119.952,81.667z M330.471,166.34
			c16.099,0,29.722,10.769,34.065,25.48h-68.13C300.749,177.109,314.372,166.34,330.471,166.34z M316.205,131.996
			c0-7.872,6.4-14.276,14.266-14.276c7.872,0,14.276,6.404,14.276,14.276c0,7.866-6.404,14.266-14.276,14.266
			C322.605,146.261,316.205,139.861,316.205,131.996z M181.529,166.34c16.099,0,29.722,10.769,34.065,25.48h-68.13
			C151.807,177.109,165.43,166.34,181.529,166.34z M167.263,131.996c0-7.872,6.4-14.276,14.266-14.276
			c7.872,0,14.276,6.404,14.276,14.276c0,7.866-6.404,14.266-14.276,14.266C173.662,146.261,167.263,139.861,167.263,131.996z
			 M20.078,175.004c0-4.492,1.751-8.716,4.93-11.895c3.173-3.173,7.398-4.92,11.896-4.92h32.639l-12.721,33.631H36.904
			C27.627,191.819,20.078,184.276,20.078,175.004z M125.39,444.848c0,1.821-1.482,3.303-3.303,3.303H85.685
			c-1.821,0-3.303-1.482-3.303-3.303v-40.107h43.008V444.848z M426.315,448.151h-36.402c-1.821,0-3.303-1.482-3.303-3.303v-40.107
			h43.008v40.107h0C429.618,446.669,428.136,448.151,426.315,448.151z M491.922,339.998c0,24.628-20.04,44.664-44.674,44.664h-7.59
			h-63.086H135.429H72.343h-7.59c-24.634,0-44.674-20.036-44.674-44.664v-83.426c0-24.634,20.04-44.674,44.674-44.674h382.494
			c24.634,0,44.674,20.04,44.674,44.674V339.998z"/>
	</g>
</g>
<g>
	<g>
		<path d="M328.895,71.278h-56.22c-5.545,0-10.039,4.495-10.039,10.039c0,5.545,4.495,10.039,10.039,10.039h56.22
			c5.545,0,10.039-4.495,10.039-10.039C338.934,75.773,334.439,71.278,328.895,71.278z"/>
	</g>
</g>
<g>
	<g>
		<path d="M361.02,71.278c-12.919,0-12.941,20.078,0,20.078C373.94,91.357,373.961,71.278,361.02,71.278z"/>
	</g>
</g>
<g>
</g>
<g>
</g>
<g>
</g>
<g>
</g>
<g>
</g>
<g>
</g>
<g>
</g>
<g>
</g>
<g>
</g>
<g>
</g>
<g>
</g>
<g>
</g>
<g>
</g>
<g>
</g>
<g>
</g>
</svg>
