<?xml version="1.0" encoding="iso-8859-1"?>
<!-- Generator: Adobe Illustrator 19.0.0, SVG Export Plug-In . SVG Version: 6.00 Build 0)  -->
<svg version="1.1" id="Capa_1" xmlns="http://www.w3.org/2000/svg" xmlns:xlink="http://www.w3.org/1999/xlink" x="0px" y="0px"
	 viewBox="0 0 332.8 332.8" style="enable-background:new 0 0 332.8 332.8;" xml:space="preserve">
<g>
	<g>
		<path d="M127.4,216.8H76.2c-3.2,0-6,2.8-6,6v22.8c0,3.2,2.8,6,6,6h51.2c3.2,0,6-2.8,6-6v-22.8
			C133.4,219.2,130.6,216.8,127.4,216.8z M95.8,239.6H82.2v-10.8h13.6V239.6z M121.4,239.2h-13.6v-10.8h13.6V239.2z"/>
	</g>
</g>
<g>
	<g>
		<path d="M253,216.8h-51.2c-3.2,0-6,2.8-6,6v22.8c0,3.2,2.8,6,6,6H253c3.2,0,6-2.8,6-6v-22.8C259,219.2,256.2,216.8,253,216.8z
			 M221.4,239.6h-13.6v-10.8h13.6V239.6z M247,239.2h-13.6v-10.8H247V239.2z"/>
	</g>
</g>
<g>
	<g>
		<path d="M186.6,25.6h-44.4c-3.2,0-6,2.8-6,6s2.8,6,6,6h44.4c3.2,0,6-2.8,6-6C192.6,28.4,189.8,25.6,186.6,25.6z"/>
	</g>
</g>
<g>
	<g>
		<path d="M292.6,54.8H285V39.6c0-22-17.6-39.6-39.6-39.6H87C65,0,47.4,17.6,47.4,39.6v15.2h-7.6c-10.4,0-19.2,8.8-19.2,19.6v44.4
			c0,10.8,8.8,19.6,19.6,19.6h7.6v110.4v12.4v55.2c0,8.8,7.2,16.4,16.4,16.4h48c8.8,0,16.4-7.2,16.4-16.4v-15.6h75.6v15.6
			c0,8.8,7.2,16.4,16.4,16.4h48c8.8,0,16.4-7.2,16.4-16.4v-54.8v-12.4V138.4h7.6c10.8,0,19.6-8.8,19.6-19.6V74.4
			C312.2,63.6,303.4,54.8,292.6,54.8z M47.4,126.4h-7.6c-4,0-7.6-3.2-7.6-7.6V74.4c0-4,3.2-7.6,7.6-7.6h7.6V126.4z M111.4,320.8h-48
			c-2.4,0-4.4-2-4.4-4.4v-26.8c7.2,6.8,16.8,11.2,27.6,11.2h28.8v15.6h0.4C115.8,318.8,113.8,320.8,111.4,320.8z M267,320.8h-48
			c-2.4,0-4.4-2-4.4-4.4v-15.6h28.8c10.8,0,20.4-4.4,27.6-11.2v26.8C271.4,318.8,269.4,320.8,267,320.8z M271.4,248.8v12.8
			c0,15.2-12.4,27.6-27.6,27.6H87c-15.2,0-27.6-12.4-27.6-27.6v-12.4v-43.6h210.4c0.8,0,1.2,0,1.6-0.4V248.8z M271.4,194.4
			c-0.4,0-1.2-0.4-1.6-0.4h-12l-88.4-57.6c-2.8-1.6-6.4-1.2-8.4,1.6c-1.6,2.8-1.2,6.4,1.6,8.4l72.8,47.2h-69.2l-88-57.2
			c-2.8-1.6-6.4-1.2-8.4,1.6c-1.6,2.8-1.2,6.4,1.6,8.4l72.8,47.2H59.4V66.8h212V194.4z M271.4,54.8h-212V39.6
			C59.4,24.4,71.8,12,87,12h156.8c15.2,0,27.6,12.4,27.6,27.6V54.8z M298.2,118.8c0,4-3.2,7.6-7.6,7.6H283V66.8h7.6
			c4.4,0,7.6,3.6,7.6,7.6V118.8z"/>
	</g>
</g>
<g>
</g>
<g>
</g>
<g>
</g>
<g>
</g>
<g>
</g>
<g>
</g>
<g>
</g>
<g>
</g>
<g>
</g>
<g>
</g>
<g>
</g>
<g>
</g>
<g>
</g>
<g>
</g>
<g>
</g>
</svg>
